<svg width="38" height="33" viewBox="0 0 38 33" fill="none" xmlns="http://www.w3.org/2000/svg">
<path d="M19 0.285706C8.512 0.285706 0 7.56571 0 16.5357C0 25.5057 8.512 32.7857 19 32.7857C29.488 32.7857 38 25.5057 38 16.5357C38 7.56571 29.488 0.285706 19 0.285706ZM25.859 10.5882C27.892 10.5882 29.526 11.9857 29.526 13.7245C29.526 15.4632 27.892 16.8607 25.859 16.8607C23.826 16.8607 22.192 15.4632 22.192 13.7245C22.173 11.9857 23.826 10.5882 25.859 10.5882ZM14.459 8.02071C16.929 8.02071 18.943 9.74321 18.943 11.8557C18.943 13.9682 16.929 15.6907 14.459 15.6907C11.989 15.6907 9.975 13.9682 9.975 11.8557C9.975 9.72696 11.97 8.02071 14.459 8.02071ZM14.459 22.857V28.9507C9.899 27.732 6.289 24.7257 4.693 20.8907C6.688 19.0707 11.666 18.1445 14.459 18.1445C15.466 18.1445 16.739 18.2745 18.069 18.502C14.953 19.9157 14.459 21.7845 14.459 22.857ZM19 29.5357C18.487 29.5357 17.993 29.5195 17.499 29.4707V22.857C17.499 20.5495 23.085 19.3957 25.859 19.3957C27.892 19.3957 31.407 20.0295 33.155 21.2645C30.932 26.0907 25.441 29.5357 19 29.5357Z" fill="#EFEFEF"/>
</svg>
